<?xml version="1.0" encoding="utf-8"?>
<!-- Generator: Adobe Illustrator 22.0.0, SVG Export Plug-In . SVG Version: 6.00 Build 0)  -->
<svg version="1.1" id="Layer_1" xmlns="http://www.w3.org/2000/svg" xmlns:xlink="http://www.w3.org/1999/xlink" x="0px" y="0px"
	 viewBox="0 0 3000 3000" style="enable-background:new 0 0 3000 3000;" xml:space="preserve">
<style type="text/css">
	.st0{fill:#323B81;}
	.st1{fill:#E0EFF8;}
	.st2{fill:#FFFFFF;}
	.st3{fill:#9DD4F2;}
	.st4{fill:#41ABE2;}
</style>
<g>
	<path class="st0" d="M2651,1676.3c0,45.5-10.6,87.5-31.5,124.8c-21.4,38.2-52.1,68.5-91.1,90c-8.1,4.4-16.4,8.4-25,11.9v79.2
		c0,40-32.4,72.4-72.4,72.4H818.8c-39.4,0-76.6-18.2-100.8-49.2c-77.9-99.8-178.1-235-186-245.7c-0.2-0.2-0.3-0.4-0.5-0.6
		c-9.3-12.3-18.8-24.8-28.5-37.5c-28.5-37.4-57.9-76.1-85.8-112.8c-42.1-55.4-58.5-102.6-64.9-130.7c-3.2-14-4.2-28.5-2.7-42.7
		c0-0.1,0-0.1,0-0.2c0.1-0.7,0.2-1.4,0.2-2.1c0.2-1.5,0.3-3.1,0.5-4.6c7.6-55.2,43.2-91.9,55-102.6l3.8-3.3l222.4-193.8
		c36.7-32,72.7-52.7,101.1-65.9c31.6-14.6,66.1-22.1,100.9-22.4c2.6,0,5.3-0.1,7.9-0.1h993.9l57.9-77.1
		c11.9-15.8,32.8-22.1,51.4-15.4l147.2,52.9c9.9,3.5,15.3,12.6,15.3,21.8c0,6.5-2.7,13.1-8.5,17.8h69.2c47.6,0,91,10.6,128.9,31.5
		c39.1,21.5,69.7,51.6,91.1,89.6c21,37.2,31.6,79.2,31.6,124.8c0,45.5-10.6,87.5-31.5,124.8c-4.1,7.1-8.5,13.9-13.1,20.5
		c8-0.6,16.2-1.1,24.5-1.1c47.5,0,90.9,10.6,128.9,31.5c39,21.5,69.6,51.7,91.1,89.7C2640.4,1588.8,2651,1630.8,2651,1676.3z"/>
	<g>
		<g>
			<path class="st1" d="M350.4,1428.5c-0.2,1.5-0.4,3.1-0.5,4.6C350.1,1431.5,350.3,1430,350.4,1428.5z"/>
			<path class="st1" d="M1254.7,1501.1c-0.4-6.4-1.8-12.3-5.3-15c-7.5-5.9-27.6-4.6-69.7-3.2c-18.8,0.6-31.8,1.8-42.1,2.9l0,0
				c0,0-44.7,2.5-63.7-1.9c-18.9-4.4-16.6-9-19.1-10.8c-2.5-1.8-2.5,10.8-4.4,13.8c-1.9,3-13.5,26.7-14.5,28
				c-18.6,26.8-18.9,18.7-17.9,13.1c2.6-13.7,14.2-42.8,15.2-53.4c0-0.1,0-0.1,0-0.2c0.4-2.4,0.6-4.7,0.6-7
				c0.6-32.2-104-157.4-106.2-170c-0.4-2.5,2-1.9,6.3,0.8c0,0,19.2,16.6,36.6,41.2c17.4,24.6,36.9,48.5,45,57.5
				c8,9,16.7,18.2,26.6,31.8c6.2,8.6,10.8,16.5,13.7,21.9c1,1.9,2,3.8,3.1,5.5c0.2,0.4,0.4,0.7,0.6,0.9c0,0,0,0,0,0
				c3.6,5.6,7.8,9.9,13.3,12.2c17.3,7.2,39-0.3,71.9-1.1c32.9-0.8,66.1-1.7,88.5,1.4c0,0,0,0,0,0c2.3,0.3,4.3,0.4,5.9,0.3
				c2.6-0.3,4.2-1.4,4.3-3.6c0.1-2.4-5.1-10.3-13.7-21.6l0,0c0,0-9.3-13.4-22.4-31.9c-22.7-32.4-56.7-80.5-71.7-100.8
				c-23-31-114.2-144.1-119.5-150.6c-4.8-6.2-9.1-11.1-12.6-13.9c-8.7-7-22.1-15.2-35.6-21.9c0,0,0,0,0,0c0,0-0.1,0-0.1,0
				c-9-4.4-17.9-8.2-25.6-10.6c-15.2-5.1-36.2-9.7-69.5-11.7c-46.1-2.7-85.7,6.9-99,10.6c-2.8,0.6-4.9,1.1-4.7,1.4
				c0.4,0.8,17.6,1.4,26.5,4.6c10.9,3.9,14.3,3.8,19,9.4c4.8,5.6,11,13.2,24.1,28.7l0,0c13.3,20,27.9,40.7,27.9,40.7
				s62.7,93.6,33.6,75.8c0,0-77-125.2-97.4-136.1c-20.4-10.9-55.6-16.1-77.6,0c-2.1,1.6-4.7,3.6-7.7,6.1c0,0,0,0,0,0
				c-0.2,0.1-0.3,0.3-0.5,0.4c-3,2.5-6.4,5.5-10,8.7c-46,40.5-211.8,189.5-230.4,205.7c-20.6,18-44.3,42.8-58.7,68
				c-13,22.7,2.8,61.5,2.8,61.5l0,0c0,0,0,0,0,0c0.2,0.7,3.8,7.8,9,16.8c1.5,2.6,11.6,20.4,28.8,47.1c11,17.1,24.8,37.9,41.1,60.6
				c17.5,24.4,37.8,51.1,60.4,78c39.6,47.1,62.7,74.5,75.9,90.1c4.8,6.3,10.4,13.1,16.5,19.4c0,0,0,0,0,0s0,0,0,0
				c3.9,4,8,7.8,12.3,11.2c0,0,0,0,0,0s12.8,10.9,21.9,18.9c9.1,8,14.8,11.2,17.2,12c2.4,0.8,3.7,1.5,4.1-3.7s18-20.8,18-20.8l0,0
				c10.2-7.4,19.4-15.9,27.8-24.8l0,0c0,0,73.1-68.5,92.4-95.1c19.3-26.6,52-49.7,75.5-75.8c6.3-7,13.2-14.6,19.9-21.8
				c0,0,19.9-14.9,16.1-4c-3.8,10.9-38,57-86,97.5c-40,33.8-76.7,74.5-97.4,102.1c0,0,0,0,0,0s-26.6,21.3-37.2,29.9
				c-10.5,8.6-18.2,17.6-17.8,22.6s6.7,7.8,18,9.2c11.3,1.4,38.8,0,38.8,0s0-0.1,0.1-0.1c1.7-0.1,3.5-0.4,5.3-0.8
				c18.2-4,154-21.8,190.9-36.8c18.2-7.4,30.6-17.7,39.9-28.5h0c0,0,29.7-28.5,60.6-61.9c24.3-26.2,102.1-107.3,134.4-140.9
				c8.6-8.9,13.9-14.5,14.2-14.8c4.3-4.3,8.3-8.7,11.7-13c13.6-17.1,19.3-30.1,20.6-40.1c0,0,0,0,0,0
				C1254.3,1516.5,1255.2,1508.5,1254.7,1501.1z"/>
		</g>
		<g>
			<g>
				<path class="st2" d="M905,1436.9c-5-12-15.1-36.3-32.7-37.4c-7.4-0.5-13.8,3.4-16.6,5.1c-5.5,3.3-8.8,7.4-13.7,13.7
					c-2.9,3.7-7.5,9.5-10.6,15.9c-1.4,3-12.1,25.8-1.2,47.5c1.1,2.1,12.5,23.8,30.7,23.6c7.8-0.1,13.3-3.8,21.3-10.4
					c19.6-16.3,24.7-36.5,25.3-41.2c0.2-2,0.2-4,0.2-4C907.8,1443.4,905.9,1438.8,905,1436.9z"/>
				<path class="st2" d="M1138.4,1561.6c-1.9-6.7-13-8.8-19-9c-7.4-0.2-12.8,2.6-16.8,4.6c-4.6,2.3-11,5.5-15.7,12.7
					c-1.5,2.3-10,15-4.2,25.3c3.3,5.8,9.9,8.6,15.3,8.7c6.1,0.1,10.4-3.4,19.1-10.5c7.6-6.3,12.9-12.6,16.8-19.1
					C1137.5,1568.2,1139.4,1565,1138.4,1561.6z"/>
				<path class="st2" d="M605.3,1501.3c-6.8-6.6-13.8-11.4-19.4-15.2c-6.7-4.5-10.1-6.8-13.8-7.5c-9.9-1.9-22.6,2.8-26.9,12.6
					c-2.2,4.9-1.6,9.4-0.6,18.5c0.9,7.4,1.8,15.5,5.7,23.3c1.4,2.8,5,9.2,28.6,24.5c17,11,25.6,16.5,32.1,15
					c10.5-2.6,18.3-15.2,19.5-26.3C632.5,1527.9,617,1512.8,605.3,1501.3z"/>
				<path class="st2" d="M1040.6,1311.5c-8.6-2.9-21.6-2-25.6,5.6c-5.5,10.3,9.2,26.2,12.2,29.4c6.7,7.2,12.6,8.8,14.7,9.2
					c2.7,0.6,5.1,0.4,5.5,0.4c0.4,0,6.8-0.5,10-3.2c6.3-5.4,3.9-23.2-5.4-33.6C1047.3,1313.9,1042,1312,1040.6,1311.5z"/>
			</g>
			<g>
				<path class="st3" d="M812.5,1282c21.5,6.1,35.1,19.5,54.6,38.8c27,26.7,12.2,40.6,40.4,78.1c22.8,30.3,45.9,38.9,43.1,56.4
					c-1.6,10.4-10.1,9.9-18.6,28.5c-6.9,15.3-7.3,29.2-7.6,41c-0.1,2-0.8,31.5,4.9,32.5c2.8,0.5,6.5-6.8,11.5-16.5
					c8.2-16.2,6.6-19.3,10.9-23.4c10.1-9.6,23.5,3.5,37.1-4c15.8-8.7,18.1-37.8,14.7-55.9c-1.4-7.7-4.6-24.5-16.4-30.2
					c-11.1-5.3-21.3,3.3-27.3-2.8c-5-5.2,0.8-12.7-1.1-26.2c-2.7-20-19.5-34-27.8-41c-15.1-12.7-20.8-9.3-27.8-20.5
					c-2.6-4.1-5.4-12.3-10.9-28.5c-3.2-9.4-4.7-14.3-5.5-16.5c-7.9-23.2-36.3-52.2-66.6-51.9c-4.6,0.1-19.1,0.2-26.7,10.8
					c-0.5,0.7-6.7,9.5-3.8,17.7C792.8,1277.5,805.4,1280,812.5,1282z"/>
				<path class="st3" d="M926.6,1232.4c4.5,4.8,9.8,10.3,11.5,9.1c2.6-1.8-4.4-18.6-11.5-31.3c-15-27.2-24.2-24.9-37.7-49
					c-10.8-19.2-10.5-30.5-21.8-35.3c-7.9-3.4-18.7-2.3-21.3,2.8c-2.8,5.8,6,13.7,24,35.9C885.8,1184.3,899.8,1203.9,926.6,1232.4z"
					/>
				<path class="st3" d="M1009.9,1202.4c-7.9,6.3-6.2,28.7-5.3,31.7c6.1,19.8,19.6,29.2,32.2,41c35.7,33.4,21.3,45,53.5,72.9
					c18.9,16.4,34.4,21.6,52.4,46.7c1.2,1.7,14,19.8,10.4,23.9c-1,1.2-3.5,1.4-25.1-6.3c-13.5-4.8-17.1-6.5-19.1-4.6
					c-3.2,3.1-0.9,13.5,4.9,19.9c6.4,7.1,15,6.8,30.6,8c35.9,2.6,42.6,7.7,45.3,3.4c4.9-7.8-16.5-26.8-48-67.3
					c-25.8-33.2-41.7-53.5-57.3-83.2c-19.2-36.5-55.8-100.4-82.7-116.3C997.3,1169.9,1017.2,1196.6,1009.9,1202.4z"/>
				<path class="st3" d="M1239,1518.1c-2.8-1.8-8.2-0.4-13.5-2.5c-9-3.6-20.7,7.7-26.2,12.9c-25.2,24.1-52.3,46.1-77.1,70.7
					c-51,50.5-68.7,49.3-77.9,79.8c-5.4,18.2-2,28-12.4,44.1c-10.4,16-24.9,23.4-48.8,35c-29.4,14.3-37.5,12-59,25.8
					c-13,8.4-35.7,25.8-32.8,32.7c3.2,7.5,35.9,1.6,61.9-9.9c18.5-8.2,32-18.5,47.3-31.9c31.5-27.8,48.9-50,75-80.5
					c17.8-20.9,31.4-36.8,42.1-48.9c0,0,0,0,0,0l0,0c12.2-13.8,20.6-22.6,27-27.8c28.8-23.4,55.8-41.2,73.9-57.8
					c12.8-11.8,21.1-23,22.2-35.1C1241.2,1520.9,1240.5,1519.1,1239,1518.1z"/>
				<path class="st3" d="M925.7,1691.9c11.3-10.1,26.4-21.9,47.3-44.1c11.1-11.7,23.1-24.6,21.1-27.4c-2.3-3.2-22.2,7-37.8,19
					c-24.2,18.5-28.7,34.2-45.9,56.2c-35.8,46-63.2,38.9-98.3,90.4c-6.4,9.5-20.6,30.7-14.6,38.8c4.3,5.8,17.8,3.3,26.9-0.8
					c22.9-10.2,23.5-32.5,45.1-67.6C889.7,1723.9,914.7,1701.7,925.7,1691.9z"/>
				<path class="st3" d="M670.6,1278.5c6.7,4.1,5.5,19.2,6.6,49.4c1.7,48.1-0.9,56.3,4.4,74.5c6.8,23.8,14.3,20.5,24,45.6
					c17.4,45.1,5.3,87.1,10.9,88.1c3.4,0.6,10.2-13.6,14.6-31.9c12.4-51.6-8.4-76.7-10.9-136c-1.5-35.1-2.8-65.8,13.8-97.3
					c20.5-38.8,55.1-53.7,51.7-84.3c-0.3-2.3-1.9-16.6-11.6-22.8c-7-4.4-21.6-6.8-80.8,37.2c-57.5,42.8-55.4,75.8-112.8,123.9
					c-22.2,18.6-21.6,13.8-45.7,34.2c-10,8.5-19.5,17.2-28.2,25.9c-14.5,14.4-27.1,28.5-36.7,40.5c-2.3,2.9-4.5,5.7-6.5,8.3
					c-10.6,14.2-16.1,24.1-14.4,25.9c2.1,2.2,15.7-7.7,32.1-21.1c1.9-1.5,3.8-3.1,5.7-4.7c9.2-7.7,18.9-16.1,27.7-23.9
					c8.7-7.7,16.6-14.7,22.3-19.8C617.7,1317.6,654.9,1268.9,670.6,1278.5z"/>
				<path class="st3" d="M815.5,1706.5c-1.3-1.8-24.1,11.3-46.7,29.6c-1.3,1-2.5,2.1-3.7,3.1c-29.7,24.8-40,42.6-52.6,39.2
					c-4.6-1.3-6.2-4.5-16.4-23.3c-27.5-50.7-31.3-55.8-37.1-73.7c-5.4-16.6-8.1-24.9-7.3-34.2c2-22.7,17-27.9,26.9-59.3
					c2.3-7.2,5.9-20.8,5.8-38c-0.1-16.9-3.6-44.2-10.2-44.8c-13.4-1.3-26.1,110.3-53.1,110.9c-10.6,0.2-31.5-16.4-41.5-24.3
					c-5.1-4-10.1-8.5-14.6-6.8c-7.9,2.9-8,22.2-8,25.1c-0.1,24.4,13.7,33.6,50.2,88.7c11.7,17.6,28.6,44.3,41.6,57.8
					c1.6,1.7,7.5,7.6,14.8,16.2c6.9,8.2,6.7,8.8,11.1,13.6c7.8,8.5,13.9,15.1,22.8,17.5c9.3,2.6,17.4-0.6,21.8-2.3
					c11.8-4.6,16.8-12.1,32.6-29.3c0.7-0.7,1.4-1.5,2.1-2.2c6.7-7.2,13.8-14.1,20.6-21.2C803.9,1718.3,816.5,1708,815.5,1706.5z"/>
			</g>
		</g>
	</g>
	<g>
		<g>
			<g>
				<path class="st4" d="M1509.7,1177.5v-65.1h-272.5v300.8c10.4,13.6,21.9,30.3,30.4,46.9h44.7v-140.6h178.4v-63.2h-178.4v-78.9
					H1509.7z"/>
				<path class="st4" d="M1748.6,1460.2l-66.5-110.7h-51.8v110.7h-75.1v-347.7h132.5c28.5,0,53.4,5.1,74.6,15.2
					c21.2,10.1,37.5,24.2,48.9,42.3c11.4,18,17.1,38.8,17.1,62.2c0,23.8-5.8,44.6-17.3,62.5c-11.6,17.9-28.1,31.6-49.6,41.1
					l74.1,124.5H1748.6z M1735.8,1191.5c-11.4-10.3-27.7-15.4-48.9-15.4h-56.5v110.2h56.5c21.5,0,37.9-4.8,49.2-14.5
					c11.2-9.7,16.9-22.9,16.9-39.7C1752.9,1215.4,1747.2,1201.8,1735.8,1191.5z"/>
				<g>
					<polygon class="st4" points="1997.8,1037.4 1937,1015.5 1882.3,1088.2 1935.5,1088.2 					"/>
					<rect x="1869" y="1112.4" class="st4" width="75.1" height="347.7"/>
				</g>
				<path class="st4" d="M2071.4,1443.1c-28-15.5-49.7-36.9-65.1-64.1c-15.4-27.2-23-58.1-23-92.6c0-34.2,7.7-64.9,23-92.2
					c15.4-27.2,37.1-48.6,65.1-64.1c28-15.5,60.3-23.3,96.7-23.3c36.4,0,68.7,7.8,96.9,23.3c28.2,15.5,50,36.9,65.3,64.1
					c15.4,27.2,23,58,23,92.2c0,34.2-7.7,65-23,92.4c-15.4,27.4-37.1,48.9-65.3,64.4c-28.2,15.5-60.5,23.3-96.9,23.3
					C2131.6,1466.3,2099.4,1458.6,2071.4,1443.1z M2112.2,1190.1c-16.6,9.7-29.7,22.9-39.2,39.7c-9.5,16.8-14.3,35.6-14.3,56.5
					c0,20.9,4.8,39.8,14.3,56.8c9.5,16.9,22.6,30.3,39.2,39.9c16.6,9.7,35.2,14.5,55.8,14.5c20.6,0,39.2-4.8,55.8-14.5
					c16.6-9.7,29.7-23,39.2-39.9c9.5-16.9,14.3-35.9,14.3-56.8c0-20.9-4.8-39.7-14.3-56.5c-9.5-16.8-22.6-30-39.2-39.7
					c-16.6-9.7-35.2-14.5-55.8-14.5C2147.4,1175.6,2128.8,1180.5,2112.2,1190.1z"/>
			</g>
			<g>
				<path class="st2" d="M1493.5,1560.9c-11.6-18.4-28-32.7-49.2-43c-21.2-10.3-45.9-15.4-74.1-15.4h-90.9
					c2,16.2,1.2,55.1-42.1,97.7v250h75.5v-105.9h57c29.1,0,54.3-5,75.5-15c21.2-10,37.5-24,48.7-42c11.2-18.1,16.9-39.1,16.9-63.2
					C1510.8,1600.3,1505,1579.3,1493.5,1560.9z M1417.7,1664.2c-11.1,10-27.6,15-49.4,15h-55.6v-111.6h55.6
					c21.9,0,38.3,5.1,49.4,15.4c11.1,10.3,16.6,24,16.6,41.1C1434.3,1640.9,1428.8,1654.2,1417.7,1664.2z"/>
				<path class="st2" d="M1625.4,1838.1c-22.8-12.2-40.4-29.3-52.7-51.3c-12.4-22-18.5-47.6-18.5-76.7v-207.6h75.1v207.6
					c0,24.4,7,43.4,20.9,57c13.9,13.6,32.3,20.4,55.1,20.4c22.5,0,40.7-6.9,54.6-20.7c13.9-13.8,20.9-32.7,20.9-56.8v-207.6h75.1
					v207.6c0,29.1-6.2,54.7-18.5,76.7c-12.3,22-29.9,39.1-52.7,51.3c-22.8,12.2-49.2,18.3-79.3,18.3
					C1674.8,1856.4,1648.2,1850.3,1625.4,1838.1z"/>
				<path class="st2" d="M2102,1850.2l-66.5-110.7h-51.8v110.7h-75.1v-347.7h132.5c28.5,0,53.4,5.1,74.6,15.2
					c21.2,10.1,37.5,24.2,48.9,42.3c11.4,18,17.1,38.8,17.1,62.2c0,23.8-5.8,44.6-17.3,62.5c-11.6,17.9-28.1,31.6-49.6,41.1
					l74.1,124.5H2102z M2089.2,1581.6c-11.4-10.3-27.7-15.4-48.9-15.4h-56.5v110.2h56.5c21.5,0,37.9-4.8,49.2-14.5
					c11.2-9.7,16.9-22.9,16.9-39.7C2106.3,1605.4,2100.6,1591.9,2089.2,1581.6z"/>
				<path class="st2" d="M2302.9,1833.1c-28-15.5-49.7-36.9-65.1-64.1c-15.4-27.2-23-58.1-23-92.6c0-34.2,7.7-64.9,23-92.2
					c15.4-27.2,37.1-48.6,65.1-64.1c28-15.5,60.3-23.3,96.7-23.3c36.4,0,68.7,7.8,96.9,23.3c28.2,15.5,50,36.9,65.3,64.1
					c15.4,27.2,23,58,23,92.2c0,34.2-7.7,65-23,92.4c-15.4,27.4-37.1,48.9-65.3,64.4c-28.2,15.5-60.5,23.3-96.9,23.3
					C2363.1,1856.4,2330.9,1848.6,2302.9,1833.1z M2343.7,1580.1c-16.6,9.7-29.7,22.9-39.2,39.7c-9.5,16.8-14.3,35.6-14.3,56.5
					c0,20.9,4.8,39.8,14.3,56.8c9.5,16.9,22.6,30.3,39.2,39.9c16.6,9.7,35.2,14.5,55.8,14.5c20.6,0,39.2-4.8,55.8-14.5
					c16.6-9.7,29.7-23,39.2-39.9c9.5-16.9,14.3-35.9,14.3-56.8c0-20.9-4.8-39.7-14.3-56.5c-9.5-16.8-22.6-30-39.2-39.7
					c-16.6-9.7-35.2-14.5-55.8-14.5C2378.9,1565.7,2360.3,1570.5,2343.7,1580.1z"/>
			</g>
		</g>
	</g>
	<g>
		<path class="st1" d="M828.2,1941.6h34.7v15h-34.7v33.4h-17.8v-82.5h57v15.4h-39.2V1941.6z"/>
		<path class="st1" d="M923.8,1990l-15.8-26.3h-12.3v26.3h-17.8v-82.5h31.5c6.8,0,12.7,1.2,17.7,3.6c5,2.4,8.9,5.7,11.6,10
			c2.7,4.3,4.1,9.2,4.1,14.8c0,5.6-1.4,10.6-4.1,14.8c-2.7,4.3-6.7,7.5-11.8,9.8l17.6,29.5H923.8z M920.7,1926.2
			c-2.7-2.4-6.6-3.7-11.6-3.7h-13.4v26.2h13.4c5.1,0,9-1.1,11.7-3.4c2.7-2.3,4-5.4,4-9.4C924.8,1931.9,923.5,1928.7,920.7,1926.2z"
			/>
		<path class="st1" d="M951.9,1990v-82.5h17.8v82.5H951.9z M968,1884.5l14.4,5.2l-14.8,12.1H955L968,1884.5z"/>
		<path class="st1" d="M997.9,1985.9c-6.7-3.7-11.8-8.8-15.4-15.2c-3.7-6.5-5.5-13.8-5.5-22c0-8.1,1.8-15.4,5.5-21.9
			c3.6-6.5,8.8-11.5,15.4-15.2c6.7-3.7,14.3-5.5,22.9-5.5c8.7,0,16.3,1.8,23,5.5c6.7,3.7,11.9,8.8,15.5,15.2
			c3.6,6.5,5.5,13.7,5.5,21.9s-1.8,15.4-5.5,21.9c-3.6,6.5-8.8,11.6-15.5,15.3c-6.7,3.7-14.4,5.5-23,5.5
			C1012.2,1991.5,1004.5,1989.6,997.9,1985.9z M1007.6,1925.9c-3.9,2.3-7,5.4-9.3,9.4c-2.3,4-3.4,8.5-3.4,13.4c0,5,1.1,9.5,3.4,13.5
			c2.3,4,5.4,7.2,9.3,9.5c3.9,2.3,8.4,3.4,13.2,3.4c4.9,0,9.3-1.1,13.3-3.4s7-5.4,9.3-9.5c2.2-4,3.4-8.5,3.4-13.5
			c0-5-1.1-9.4-3.4-13.4c-2.3-4-5.4-7.1-9.3-9.4c-3.9-2.3-8.4-3.4-13.3-3.4C1015.9,1922.4,1011.5,1923.6,1007.6,1925.9z"/>
		<path class="st1" d="M1118.7,1941.6h34.7v15h-34.7v17.9h39.3v15.4h-57.2v-82.5h57.2v15.4h-39.3V1941.6z"/>
		<path class="st1" d="M1239.5,1907.5v82.5h-16.9l-37.1-51.3v51.3h-17.8v-82.5h16.9l37.1,51.4v-51.4H1239.5z"/>
		<path class="st1" d="M1311.5,1975c9.6,0,14.4-2.9,14.4-8.7c0-1.8-0.8-3.3-2.2-4.4c-1.5-1.1-3.4-2-5.7-2.7
			c-2.3-0.7-5.6-1.5-9.8-2.4c-6.6-1.4-12.1-2.9-16.4-4.5c-4.3-1.5-8-4-11.2-7.4c-3.1-3.4-4.7-8-4.7-13.8c0-5.3,1.5-9.9,4.4-13.7
			c2.9-3.8,6.9-6.6,11.8-8.6c4.9-1.9,10.3-2.9,16.2-2.9c6.3,0,12.2,1,17.8,3c5.5,2,10.4,4.8,14.6,8.4l-9,12.6
			c-3.2-2.4-6.9-4.2-11.1-5.5c-4.2-1.3-8.5-1.9-13-1.9c-4.1,0-7.3,0.7-9.9,2c-2.5,1.3-3.8,3.4-3.8,6.4c0,1.7,0.7,3.1,2.2,4.2
			c1.5,1.1,3.3,2,5.6,2.6c2.3,0.6,5.5,1.4,9.6,2.2c6.7,1.4,12.2,2.9,16.6,4.5c4.4,1.6,8.1,4.1,11.3,7.6c3.2,3.5,4.8,8.2,4.8,14.3
			c0,8-2.9,14.3-8.7,18.7c-5.8,4.4-13.7,6.6-23.6,6.6c-7.1,0-13.9-1.1-20.3-3.4c-6.4-2.3-12-5.4-16.6-9.3l9.5-12.6
			C1292.5,1972.1,1301.7,1975,1311.5,1975z"/>
		<path class="st1" d="M1369,1987.1c-5.4-2.9-9.6-7-12.5-12.2c-2.9-5.2-4.4-11.3-4.4-18.2v-49.3h17.8v49.3c0,5.8,1.7,10.3,5,13.5
			c3.3,3.2,7.7,4.8,13.1,4.8c5.3,0,9.7-1.6,13-4.9c3.3-3.3,5-7.8,5-13.5v-49.3h17.8v49.3c0,6.9-1.5,13-4.4,18.2
			c-2.9,5.2-7.1,9.3-12.5,12.2c-5.4,2.9-11.7,4.3-18.8,4.3C1380.8,1991.5,1374.5,1990,1369,1987.1z"/>
		<path class="st1" d="M1551.6,1990h-17.9v-53.1l-23.2,39.2h-5.9l-23.3-39.3v53.2h-17.8v-82.5h19.4l24.7,41l24.7-41h19.4V1990z"/>
		<path class="st1" d="M1622.1,1973.6h-35.9l-6.4,16.3h-19.4l34.2-82.5h19.3l34.1,82.5h-19.4L1622.1,1973.6z M1616.3,1958.9
			l-12.2-30.9l-12.1,30.9H1616.3z M1611.9,1884.5l14.4,5.2l-14.8,12.1H1599L1611.9,1884.5z"/>
		<path class="st1" d="M1648.9,1907.5h22.4l18.6,27.5l18.4-27.5h22.4l-29.3,41.4l29.2,41.1h-22.4l-18.3-27.3l-18.4,27.3h-22.4
			l29.2-41.1L1648.9,1907.5z"/>
		<path class="st1" d="M1740.1,1990v-82.5h17.8v82.5H1740.1z"/>
		<path class="st1" d="M1857.1,1990h-17.9v-53.1l-23.2,39.2h-5.9l-23.3-39.3v53.2h-17.8v-82.5h19.4l24.7,41l24.7-41h19.4V1990z"/>
		<path class="st1" d="M1927.6,1973.6h-35.9l-6.4,16.3h-19.4l34.2-82.5h19.3l34.1,82.5H1934L1927.6,1973.6z M1921.8,1958.9
			l-12.2-30.9l-12.1,30.9H1921.8z"/>
		<path class="st4" d="M2031.5,1911.1c5,2.4,8.9,5.8,11.7,10.2s4.1,9.4,4.1,15c0,5.7-1.3,10.7-4,15c-2.7,4.3-6.5,7.6-11.6,10
			c-5,2.4-11,3.6-17.9,3.6h-13.5v25.1h-17.9v-82.5h31.6C2020.6,1907.5,2026.5,1908.7,2031.5,1911.1z M2025.2,1945.8
			c2.6-2.4,3.9-5.5,3.9-9.5c0-4.1-1.3-7.3-3.9-9.8c-2.6-2.4-6.5-3.7-11.7-3.7h-13.2v26.5h13.2
			C2018.6,1949.4,2022.6,1948.2,2025.2,1945.8z"/>
		<path class="st4" d="M2072.6,1987.1c-5.4-2.9-9.6-7-12.5-12.2c-2.9-5.2-4.4-11.3-4.4-18.2v-49.3h17.8v49.3c0,5.8,1.7,10.3,5,13.5
			c3.3,3.2,7.7,4.8,13.1,4.8c5.3,0,9.7-1.6,13-4.9c3.3-3.3,5-7.8,5-13.5v-49.3h17.8v49.3c0,6.9-1.5,13-4.4,18.2
			c-2.9,5.2-7.1,9.3-12.5,12.2c-5.4,2.9-11.7,4.3-18.8,4.3C2084.3,1991.5,2078,1990,2072.6,1987.1z"/>
		<path class="st4" d="M2183.7,1990l-15.8-26.3h-12.3v26.3h-17.8v-82.5h31.5c6.8,0,12.7,1.2,17.7,3.6c5,2.4,8.9,5.7,11.6,10
			c2.7,4.3,4.1,9.2,4.1,14.8c0,5.6-1.4,10.6-4.1,14.8c-2.7,4.3-6.7,7.5-11.8,9.8l17.6,29.5H2183.7z M2180.7,1926.2
			c-2.7-2.4-6.6-3.7-11.6-3.7h-13.4v26.2h13.4c5.1,0,9-1.1,11.7-3.4c2.7-2.3,4-5.4,4-9.4C2184.8,1931.9,2183.4,1928.7,2180.7,1926.2
			z"/>
		<path class="st4" d="M2229.6,1941.6h34.7v15h-34.7v17.9h39.3v15.4h-57.2v-82.5h57.2v15.4h-39.3V1941.6z"/>
		<path class="st4" d="M2339.4,1974.5v15.4h-61.7v-15l38.4-52.1h-38.7v-15.4h60.7v15l-38.6,52.1H2339.4z"/>
		<path class="st4" d="M2408.8,1973.6H2373l-6.4,16.3h-19.4l34.2-82.5h19.3l34.1,82.5h-19.4L2408.8,1973.6z M2403.1,1958.9
			l-12.2-30.9l-12.1,30.9H2403.1z"/>
	</g>
</g>
</svg>
